o asraam
v 0.00053950 0.00000000 -0.01450000
v 0.00052112 0.00013963 -0.01450000
v 0.00080172 0.00021482 -0.01247000
v 0.00083000 0.00000000 -0.01247000
v 0.00052112 0.00013963 -0.01450000
v 0.00046722 0.00026975 -0.01450000
v 0.00071880 0.00041500 -0.01247000
v 0.00080172 0.00021482 -0.01247000
v 0.00046722 0.00026975 -0.01450000
v 0.00038148 0.00038148 -0.01450000
v 0.00058690 0.00058690 -0.01247000
v 0.00071880 0.00041500 -0.01247000
v 0.00038148 0.00038148 -0.01450000
v 0.00026975 0.00046722 -0.01450000
v 0.00041500 0.00071880 -0.01247000
v 0.00058690 0.00058690 -0.01247000
v 0.00026975 0.00046722 -0.01450000
v 0.00013963 0.00052112 -0.01450000
v 0.00021482 0.00080172 -0.01247000
v 0.00041500 0.00071880 -0.01247000
v 0.00013963 0.00052112 -0.01450000
v 0.00000000 0.00053950 -0.01450000
v 0.00000000 0.00083000 -0.01247000
v 0.00021482 0.00080172 -0.01247000
v 0.00000000 0.00053950 -0.01450000
v -0.00013963 0.00052112 -0.01450000
v -0.00021482 0.00080172 -0.01247000
v 0.00000000 0.00083000 -0.01247000
v -0.00013963 0.00052112 -0.01450000
v -0.00026975 0.00046722 -0.01450000
v -0.00041500 0.00071880 -0.01247000
v -0.00021482 0.00080172 -0.01247000
v -0.00026975 0.00046722 -0.01450000
v -0.00038148 0.00038148 -0.01450000
v -0.00058690 0.00058690 -0.01247000
v -0.00041500 0.00071880 -0.01247000
v -0.00038148 0.00038148 -0.01450000
v -0.00046722 0.00026975 -0.01450000
v -0.00071880 0.00041500 -0.01247000
v -0.00058690 0.00058690 -0.01247000
v -0.00046722 0.00026975 -0.01450000
v -0.00052112 0.00013963 -0.01450000
v -0.00080172 0.00021482 -0.01247000
v -0.00071880 0.00041500 -0.01247000
v -0.00052112 0.00013963 -0.01450000
v -0.00053950 0.00000000 -0.01450000
v -0.00083000 0.00000000 -0.01247000
v -0.00080172 0.00021482 -0.01247000
v -0.00053950 0.00000000 -0.01450000
v -0.00052112 -0.00013963 -0.01450000
v -0.00080172 -0.00021482 -0.01247000
v -0.00083000 0.00000000 -0.01247000
v -0.00052112 -0.00013963 -0.01450000
v -0.00046722 -0.00026975 -0.01450000
v -0.00071880 -0.00041500 -0.01247000
v -0.00080172 -0.00021482 -0.01247000
v -0.00046722 -0.00026975 -0.01450000
v -0.00038148 -0.00038148 -0.01450000
v -0.00058690 -0.00058690 -0.01247000
v -0.00071880 -0.00041500 -0.01247000
v -0.00038148 -0.00038148 -0.01450000
v -0.00026975 -0.00046722 -0.01450000
v -0.00041500 -0.00071880 -0.01247000
v -0.00058690 -0.00058690 -0.01247000
v -0.00026975 -0.00046722 -0.01450000
v -0.00013963 -0.00052112 -0.01450000
v -0.00021482 -0.00080172 -0.01247000
v -0.00041500 -0.00071880 -0.01247000
v -0.00013963 -0.00052112 -0.01450000
v -0.00000000 -0.00053950 -0.01450000
v -0.00000000 -0.00083000 -0.01247000
v -0.00021482 -0.00080172 -0.01247000
v -0.00000000 -0.00053950 -0.01450000
v 0.00013963 -0.00052112 -0.01450000
v 0.00021482 -0.00080172 -0.01247000
v -0.00000000 -0.00083000 -0.01247000
v 0.00013963 -0.00052112 -0.01450000
v 0.00026975 -0.00046722 -0.01450000
v 0.00041500 -0.00071880 -0.01247000
v 0.00021482 -0.00080172 -0.01247000
v 0.00026975 -0.00046722 -0.01450000
v 0.00038148 -0.00038148 -0.01450000
v 0.00058690 -0.00058690 -0.01247000
v 0.00041500 -0.00071880 -0.01247000
v 0.00038148 -0.00038148 -0.01450000
v 0.00046722 -0.00026975 -0.01450000
v 0.00071880 -0.00041500 -0.01247000
v 0.00058690 -0.00058690 -0.01247000
v 0.00046722 -0.00026975 -0.01450000
v 0.00052112 -0.00013963 -0.01450000
v 0.00080172 -0.00021482 -0.01247000
v 0.00071880 -0.00041500 -0.01247000
v 0.00052112 -0.00013963 -0.01450000
v 0.00053950 -0.00000000 -0.01450000
v 0.00083000 -0.00000000 -0.01247000
v 0.00080172 -0.00021482 -0.01247000
v 0.00083000 0.00000000 -0.01247000
v 0.00080172 0.00021482 -0.01247000
v 0.00080172 0.00021482 0.00812000
v 0.00083000 0.00000000 0.00812000
v 0.00080172 0.00021482 -0.01247000
v 0.00071880 0.00041500 -0.01247000
v 0.00071880 0.00041500 0.00812000
v 0.00080172 0.00021482 0.00812000
v 0.00071880 0.00041500 -0.01247000
v 0.00058690 0.00058690 -0.01247000
v 0.00058690 0.00058690 0.00812000
v 0.00071880 0.00041500 0.00812000
v 0.00058690 0.00058690 -0.01247000
v 0.00041500 0.00071880 -0.01247000
v 0.00041500 0.00071880 0.00812000
v 0.00058690 0.00058690 0.00812000
v 0.00041500 0.00071880 -0.01247000
v 0.00021482 0.00080172 -0.01247000
v 0.00021482 0.00080172 0.00812000
v 0.00041500 0.00071880 0.00812000
v 0.00021482 0.00080172 -0.01247000
v 0.00000000 0.00083000 -0.01247000
v 0.00000000 0.00083000 0.00812000
v 0.00021482 0.00080172 0.00812000
v 0.00000000 0.00083000 -0.01247000
v -0.00021482 0.00080172 -0.01247000
v -0.00021482 0.00080172 0.00812000
v 0.00000000 0.00083000 0.00812000
v -0.00021482 0.00080172 -0.01247000
v -0.00041500 0.00071880 -0.01247000
v -0.00041500 0.00071880 0.00812000
v -0.00021482 0.00080172 0.00812000
v -0.00041500 0.00071880 -0.01247000
v -0.00058690 0.00058690 -0.01247000
v -0.00058690 0.00058690 0.00812000
v -0.00041500 0.00071880 0.00812000
v -0.00058690 0.00058690 -0.01247000
v -0.00071880 0.00041500 -0.01247000
v -0.00071880 0.00041500 0.00812000
v -0.00058690 0.00058690 0.00812000
v -0.00071880 0.00041500 -0.01247000
v -0.00080172 0.00021482 -0.01247000
v -0.00080172 0.00021482 0.00812000
v -0.00071880 0.00041500 0.00812000
v -0.00080172 0.00021482 -0.01247000
v -0.00083000 0.00000000 -0.01247000
v -0.00083000 0.00000000 0.00812000
v -0.00080172 0.00021482 0.00812000
v -0.00083000 0.00000000 -0.01247000
v -0.00080172 -0.00021482 -0.01247000
v -0.00080172 -0.00021482 0.00812000
v -0.00083000 0.00000000 0.00812000
v -0.00080172 -0.00021482 -0.01247000
v -0.00071880 -0.00041500 -0.01247000
v -0.00071880 -0.00041500 0.00812000
v -0.00080172 -0.00021482 0.00812000
v -0.00071880 -0.00041500 -0.01247000
v -0.00058690 -0.00058690 -0.01247000
v -0.00058690 -0.00058690 0.00812000
v -0.00071880 -0.00041500 0.00812000
v -0.00058690 -0.00058690 -0.01247000
v -0.00041500 -0.00071880 -0.01247000
v -0.00041500 -0.00071880 0.00812000
v -0.00058690 -0.00058690 0.00812000
v -0.00041500 -0.00071880 -0.01247000
v -0.00021482 -0.00080172 -0.01247000
v -0.00021482 -0.00080172 0.00812000
v -0.00041500 -0.00071880 0.00812000
v -0.00021482 -0.00080172 -0.01247000
v -0.00000000 -0.00083000 -0.01247000
v -0.00000000 -0.00083000 0.00812000
v -0.00021482 -0.00080172 0.00812000
v -0.00000000 -0.00083000 -0.01247000
v 0.00021482 -0.00080172 -0.01247000
v 0.00021482 -0.00080172 0.00812000
v -0.00000000 -0.00083000 0.00812000
v 0.00021482 -0.00080172 -0.01247000
v 0.00041500 -0.00071880 -0.01247000
v 0.00041500 -0.00071880 0.00812000
v 0.00021482 -0.00080172 0.00812000
v 0.00041500 -0.00071880 -0.01247000
v 0.00058690 -0.00058690 -0.01247000
v 0.00058690 -0.00058690 0.00812000
v 0.00041500 -0.00071880 0.00812000
v 0.00058690 -0.00058690 -0.01247000
v 0.00071880 -0.00041500 -0.01247000
v 0.00071880 -0.00041500 0.00812000
v 0.00058690 -0.00058690 0.00812000
v 0.00071880 -0.00041500 -0.01247000
v 0.00080172 -0.00021482 -0.01247000
v 0.00080172 -0.00021482 0.00812000
v 0.00071880 -0.00041500 0.00812000
v 0.00080172 -0.00021482 -0.01247000
v 0.00083000 -0.00000000 -0.01247000
v 0.00083000 -0.00000000 0.00812000
v 0.00080172 -0.00021482 0.00812000
v 0.00083000 0.00000000 0.00812000
v 0.00080172 0.00021482 0.00812000
v 0.00002405 0.00000644 0.01450000
v 0.00002490 0.00000000 0.01450000
v 0.00080172 0.00021482 0.00812000
v 0.00071880 0.00041500 0.00812000
v 0.00002156 0.00001245 0.01450000
v 0.00002405 0.00000644 0.01450000
v 0.00071880 0.00041500 0.00812000
v 0.00058690 0.00058690 0.00812000
v 0.00001761 0.00001761 0.01450000
v 0.00002156 0.00001245 0.01450000
v 0.00058690 0.00058690 0.00812000
v 0.00041500 0.00071880 0.00812000
v 0.00001245 0.00002156 0.01450000
v 0.00001761 0.00001761 0.01450000
v 0.00041500 0.00071880 0.00812000
v 0.00021482 0.00080172 0.00812000
v 0.00000644 0.00002405 0.01450000
v 0.00001245 0.00002156 0.01450000
v 0.00021482 0.00080172 0.00812000
v 0.00000000 0.00083000 0.00812000
v 0.00000000 0.00002490 0.01450000
v 0.00000644 0.00002405 0.01450000
v 0.00000000 0.00083000 0.00812000
v -0.00021482 0.00080172 0.00812000
v -0.00000644 0.00002405 0.01450000
v 0.00000000 0.00002490 0.01450000
v -0.00021482 0.00080172 0.00812000
v -0.00041500 0.00071880 0.00812000
v -0.00001245 0.00002156 0.01450000
v -0.00000644 0.00002405 0.01450000
v -0.00041500 0.00071880 0.00812000
v -0.00058690 0.00058690 0.00812000
v -0.00001761 0.00001761 0.01450000
v -0.00001245 0.00002156 0.01450000
v -0.00058690 0.00058690 0.00812000
v -0.00071880 0.00041500 0.00812000
v -0.00002156 0.00001245 0.01450000
v -0.00001761 0.00001761 0.01450000
v -0.00071880 0.00041500 0.00812000
v -0.00080172 0.00021482 0.00812000
v -0.00002405 0.00000644 0.01450000
v -0.00002156 0.00001245 0.01450000
v -0.00080172 0.00021482 0.00812000
v -0.00083000 0.00000000 0.00812000
v -0.00002490 0.00000000 0.01450000
v -0.00002405 0.00000644 0.01450000
v -0.00083000 0.00000000 0.00812000
v -0.00080172 -0.00021482 0.00812000
v -0.00002405 -0.00000644 0.01450000
v -0.00002490 0.00000000 0.01450000
v -0.00080172 -0.00021482 0.00812000
v -0.00071880 -0.00041500 0.00812000
v -0.00002156 -0.00001245 0.01450000
v -0.00002405 -0.00000644 0.01450000
v -0.00071880 -0.00041500 0.00812000
v -0.00058690 -0.00058690 0.00812000
v -0.00001761 -0.00001761 0.01450000
v -0.00002156 -0.00001245 0.01450000
v -0.00058690 -0.00058690 0.00812000
v -0.00041500 -0.00071880 0.00812000
v -0.00001245 -0.00002156 0.01450000
v -0.00001761 -0.00001761 0.01450000
v -0.00041500 -0.00071880 0.00812000
v -0.00021482 -0.00080172 0.00812000
v -0.00000644 -0.00002405 0.01450000
v -0.00001245 -0.00002156 0.01450000
v -0.00021482 -0.00080172 0.00812000
v -0.00000000 -0.00083000 0.00812000
v -0.00000000 -0.00002490 0.01450000
v -0.00000644 -0.00002405 0.01450000
v -0.00000000 -0.00083000 0.00812000
v 0.00021482 -0.00080172 0.00812000
v 0.00000644 -0.00002405 0.01450000
v -0.00000000 -0.00002490 0.01450000
v 0.00021482 -0.00080172 0.00812000
v 0.00041500 -0.00071880 0.00812000
v 0.00001245 -0.00002156 0.01450000
v 0.00000644 -0.00002405 0.01450000
v 0.00041500 -0.00071880 0.00812000
v 0.00058690 -0.00058690 0.00812000
v 0.00001761 -0.00001761 0.01450000
v 0.00001245 -0.00002156 0.01450000
v 0.00058690 -0.00058690 0.00812000
v 0.00071880 -0.00041500 0.00812000
v 0.00002156 -0.00001245 0.01450000
v 0.00001761 -0.00001761 0.01450000
v 0.00071880 -0.00041500 0.00812000
v 0.00080172 -0.00021482 0.00812000
v 0.00002405 -0.00000644 0.01450000
v 0.00002156 -0.00001245 0.01450000
v 0.00080172 -0.00021482 0.00812000
v 0.00083000 -0.00000000 0.00812000
v 0.00002490 -0.00000000 0.01450000
v 0.00002405 -0.00000644 0.01450000
v 0.00058690 0.00058690 -0.01305000
v 0.00159099 0.00159099 -0.01334000
v 0.00159099 0.00159099 -0.00870000
v 0.00058690 0.00058690 -0.00522000
v 0.00058690 0.00058690 -0.00522000
v 0.00159099 0.00159099 -0.00870000
v 0.00159099 0.00159099 -0.01334000
v 0.00058690 0.00058690 -0.01305000
v -0.00058690 0.00058690 -0.01305000
v -0.00159099 0.00159099 -0.01334000
v -0.00159099 0.00159099 -0.00870000
v -0.00058690 0.00058690 -0.00522000
v -0.00058690 0.00058690 -0.00522000
v -0.00159099 0.00159099 -0.00870000
v -0.00159099 0.00159099 -0.01334000
v -0.00058690 0.00058690 -0.01305000
v -0.00058690 -0.00058690 -0.01305000
v -0.00159099 -0.00159099 -0.01334000
v -0.00159099 -0.00159099 -0.00870000
v -0.00058690 -0.00058690 -0.00522000
v -0.00058690 -0.00058690 -0.00522000
v -0.00159099 -0.00159099 -0.00870000
v -0.00159099 -0.00159099 -0.01334000
v -0.00058690 -0.00058690 -0.01305000
v 0.00058690 -0.00058690 -0.01305000
v 0.00159099 -0.00159099 -0.01334000
v 0.00159099 -0.00159099 -0.00870000
v 0.00058690 -0.00058690 -0.00522000
v 0.00058690 -0.00058690 -0.00522000
v 0.00159099 -0.00159099 -0.00870000
v 0.00159099 -0.00159099 -0.01334000
v 0.00058690 -0.00058690 -0.01305000
vt 0.5 0.5
vn 0.981614 0.129232 -0.140472
vn 0.981614 0.129232 -0.140472
vn 0.914719 0.378889 -0.140472
vn 0.914719 0.378889 -0.140472
vn 0.785487 0.602725 -0.140472
vn 0.785487 0.602725 -0.140472
vn 0.602725 0.785487 -0.140472
vn 0.602725 0.785487 -0.140472
vn 0.378889 0.914719 -0.140472
vn 0.378889 0.914719 -0.140472
vn 0.129232 0.981614 -0.140472
vn 0.129232 0.981614 -0.140472
vn -0.129232 0.981614 -0.140472
vn -0.129232 0.981614 -0.140472
vn -0.378889 0.914719 -0.140472
vn -0.378889 0.914719 -0.140472
vn -0.602725 0.785487 -0.140472
vn -0.602725 0.785487 -0.140472
vn -0.785487 0.602725 -0.140472
vn -0.785487 0.602725 -0.140472
vn -0.914719 0.378889 -0.140472
vn -0.914719 0.378889 -0.140472
vn -0.981614 0.129232 -0.140472
vn -0.981614 0.129232 -0.140472
vn -0.981614 -0.129232 -0.140472
vn -0.981614 -0.129232 -0.140472
vn -0.914719 -0.378889 -0.140472
vn -0.914719 -0.378889 -0.140472
vn -0.785487 -0.602725 -0.140472
vn -0.785487 -0.602725 -0.140472
vn -0.602725 -0.785487 -0.140472
vn -0.602725 -0.785487 -0.140472
vn -0.378889 -0.914719 -0.140472
vn -0.378889 -0.914719 -0.140472
vn -0.129232 -0.981614 -0.140472
vn -0.129232 -0.981614 -0.140472
vn 0.129232 -0.981614 -0.140472
vn 0.129232 -0.981614 -0.140472
vn 0.378889 -0.914719 -0.140472
vn 0.378889 -0.914719 -0.140472
vn 0.602725 -0.785487 -0.140472
vn 0.602725 -0.785487 -0.140472
vn 0.785487 -0.602725 -0.140472
vn 0.785487 -0.602725 -0.140472
vn 0.914719 -0.378889 -0.140472
vn 0.914719 -0.378889 -0.140472
vn 0.981614 -0.129232 -0.140472
vn 0.981614 -0.129232 -0.140472
vn 0.991445 0.130526 0.000000
vn 0.991445 0.130526 -0.000000
vn 0.923880 0.382683 0.000000
vn 0.923880 0.382683 -0.000000
vn 0.793353 0.608761 0.000000
vn 0.793353 0.608761 -0.000000
vn 0.608761 0.793353 0.000000
vn 0.608761 0.793353 -0.000000
vn 0.382683 0.923880 0.000000
vn 0.382683 0.923880 -0.000000
vn 0.130526 0.991445 0.000000
vn 0.130526 0.991445 -0.000000
vn -0.130526 0.991445 0.000000
vn -0.130526 0.991445 0.000000
vn -0.382683 0.923880 0.000000
vn -0.382683 0.923880 0.000000
vn -0.608761 0.793353 0.000000
vn -0.608761 0.793353 0.000000
vn -0.793353 0.608761 0.000000
vn -0.793353 0.608761 0.000000
vn -0.923880 0.382683 0.000000
vn -0.923880 0.382683 0.000000
vn -0.991445 0.130526 0.000000
vn -0.991445 0.130526 0.000000
vn -0.991445 -0.130526 0.000000
vn -0.991445 -0.130526 0.000000
vn -0.923880 -0.382683 0.000000
vn -0.923880 -0.382683 0.000000
vn -0.793353 -0.608761 0.000000
vn -0.793353 -0.608761 0.000000
vn -0.608761 -0.793353 0.000000
vn -0.608761 -0.793353 0.000000
vn -0.382683 -0.923880 0.000000
vn -0.382683 -0.923880 0.000000
vn -0.130526 -0.991445 0.000000
vn -0.130526 -0.991445 0.000000
vn 0.130526 -0.991445 0.000000
vn 0.130526 -0.991445 0.000000
vn 0.382683 -0.923880 0.000000
vn 0.382683 -0.923880 0.000000
vn 0.608761 -0.793353 0.000000
vn 0.608761 -0.793353 0.000000
vn 0.793353 -0.608761 0.000000
vn 0.793353 -0.608761 0.000000
vn 0.923880 -0.382683 0.000000
vn 0.923880 -0.382683 0.000000
vn 0.991445 -0.130526 0.000000
vn 0.991445 -0.130526 0.000000
vn 0.983775 0.129516 0.124144
vn 0.983775 0.129516 0.124144
vn 0.916733 0.379723 0.124144
vn 0.916733 0.379723 0.124144
vn 0.787216 0.604052 0.124144
vn 0.787216 0.604052 0.124144
vn 0.604052 0.787216 0.124144
vn 0.604052 0.787216 0.124144
vn 0.379723 0.916733 0.124144
vn 0.379723 0.916733 0.124144
vn 0.129516 0.983775 0.124144
vn 0.129516 0.983775 0.124144
vn -0.129516 0.983775 0.124144
vn -0.129516 0.983775 0.124144
vn -0.379723 0.916733 0.124144
vn -0.379723 0.916733 0.124144
vn -0.604052 0.787216 0.124144
vn -0.604052 0.787216 0.124144
vn -0.787216 0.604052 0.124144
vn -0.787216 0.604052 0.124144
vn -0.916733 0.379723 0.124144
vn -0.916733 0.379723 0.124144
vn -0.983775 0.129516 0.124144
vn -0.983775 0.129516 0.124144
vn -0.983775 -0.129516 0.124144
vn -0.983775 -0.129516 0.124144
vn -0.916733 -0.379723 0.124144
vn -0.916733 -0.379723 0.124144
vn -0.787216 -0.604052 0.124144
vn -0.787216 -0.604052 0.124144
vn -0.604052 -0.787216 0.124144
vn -0.604052 -0.787216 0.124144
vn -0.379723 -0.916733 0.124144
vn -0.379723 -0.916733 0.124144
vn -0.129516 -0.983775 0.124144
vn -0.129516 -0.983775 0.124144
vn 0.129516 -0.983775 0.124144
vn 0.129516 -0.983775 0.124144
vn 0.379723 -0.916733 0.124144
vn 0.379723 -0.916733 0.124144
vn 0.604052 -0.787216 0.124144
vn 0.604052 -0.787216 0.124144
vn 0.787216 -0.604052 0.124144
vn 0.787216 -0.604052 0.124144
vn 0.916733 -0.379723 0.124144
vn 0.916733 -0.379723 0.124144
vn 0.983775 -0.129516 0.124144
vn 0.983775 -0.129516 0.124144
vn 0.707107 -0.707107 0.000000
vn 0.707107 -0.707107 0.000000
vn -0.707107 0.707107 0.000000
vn -0.707107 0.707107 0.000000
vn 0.707107 0.707107 0.000000
vn 0.707107 0.707107 -0.000000
vn -0.707107 -0.707107 0.000000
vn -0.707107 -0.707107 -0.000000
vn -0.707107 0.707107 0.000000
vn -0.707107 0.707107 0.000000
vn 0.707107 -0.707107 0.000000
vn 0.707107 -0.707107 0.000000
vn -0.707107 -0.707107 0.000000
vn -0.707107 -0.707107 0.000000
vn 0.707107 0.707107 0.000000
vn 0.707107 0.707107 0.000000
f 1/1/1 2/1/1 3/1/1
f 1/1/2 3/1/2 4/1/2
f 5/1/3 6/1/3 7/1/3
f 5/1/4 7/1/4 8/1/4
f 9/1/5 10/1/5 11/1/5
f 9/1/6 11/1/6 12/1/6
f 13/1/7 14/1/7 15/1/7
f 13/1/8 15/1/8 16/1/8
f 17/1/9 18/1/9 19/1/9
f 17/1/10 19/1/10 20/1/10
f 21/1/11 22/1/11 23/1/11
f 21/1/12 23/1/12 24/1/12
f 25/1/13 26/1/13 27/1/13
f 25/1/14 27/1/14 28/1/14
f 29/1/15 30/1/15 31/1/15
f 29/1/16 31/1/16 32/1/16
f 33/1/17 34/1/17 35/1/17
f 33/1/18 35/1/18 36/1/18
f 37/1/19 38/1/19 39/1/19
f 37/1/20 39/1/20 40/1/20
f 41/1/21 42/1/21 43/1/21
f 41/1/22 43/1/22 44/1/22
f 45/1/23 46/1/23 47/1/23
f 45/1/24 47/1/24 48/1/24
f 49/1/25 50/1/25 51/1/25
f 49/1/26 51/1/26 52/1/26
f 53/1/27 54/1/27 55/1/27
f 53/1/28 55/1/28 56/1/28
f 57/1/29 58/1/29 59/1/29
f 57/1/30 59/1/30 60/1/30
f 61/1/31 62/1/31 63/1/31
f 61/1/32 63/1/32 64/1/32
f 65/1/33 66/1/33 67/1/33
f 65/1/34 67/1/34 68/1/34
f 69/1/35 70/1/35 71/1/35
f 69/1/36 71/1/36 72/1/36
f 73/1/37 74/1/37 75/1/37
f 73/1/38 75/1/38 76/1/38
f 77/1/39 78/1/39 79/1/39
f 77/1/40 79/1/40 80/1/40
f 81/1/41 82/1/41 83/1/41
f 81/1/42 83/1/42 84/1/42
f 85/1/43 86/1/43 87/1/43
f 85/1/44 87/1/44 88/1/44
f 89/1/45 90/1/45 91/1/45
f 89/1/46 91/1/46 92/1/46
f 93/1/47 94/1/47 95/1/47
f 93/1/48 95/1/48 96/1/48
f 97/1/49 98/1/49 99/1/49
f 97/1/50 99/1/50 100/1/50
f 101/1/51 102/1/51 103/1/51
f 101/1/52 103/1/52 104/1/52
f 105/1/53 106/1/53 107/1/53
f 105/1/54 107/1/54 108/1/54
f 109/1/55 110/1/55 111/1/55
f 109/1/56 111/1/56 112/1/56
f 113/1/57 114/1/57 115/1/57
f 113/1/58 115/1/58 116/1/58
f 117/1/59 118/1/59 119/1/59
f 117/1/60 119/1/60 120/1/60
f 121/1/61 122/1/61 123/1/61
f 121/1/62 123/1/62 124/1/62
f 125/1/63 126/1/63 127/1/63
f 125/1/64 127/1/64 128/1/64
f 129/1/65 130/1/65 131/1/65
f 129/1/66 131/1/66 132/1/66
f 133/1/67 134/1/67 135/1/67
f 133/1/68 135/1/68 136/1/68
f 137/1/69 138/1/69 139/1/69
f 137/1/70 139/1/70 140/1/70
f 141/1/71 142/1/71 143/1/71
f 141/1/72 143/1/72 144/1/72
f 145/1/73 146/1/73 147/1/73
f 145/1/74 147/1/74 148/1/74
f 149/1/75 150/1/75 151/1/75
f 149/1/76 151/1/76 152/1/76
f 153/1/77 154/1/77 155/1/77
f 153/1/78 155/1/78 156/1/78
f 157/1/79 158/1/79 159/1/79
f 157/1/80 159/1/80 160/1/80
f 161/1/81 162/1/81 163/1/81
f 161/1/82 163/1/82 164/1/82
f 165/1/83 166/1/83 167/1/83
f 165/1/84 167/1/84 168/1/84
f 169/1/85 170/1/85 171/1/85
f 169/1/86 171/1/86 172/1/86
f 173/1/87 174/1/87 175/1/87
f 173/1/88 175/1/88 176/1/88
f 177/1/89 178/1/89 179/1/89
f 177/1/90 179/1/90 180/1/90
f 181/1/91 182/1/91 183/1/91
f 181/1/92 183/1/92 184/1/92
f 185/1/93 186/1/93 187/1/93
f 185/1/94 187/1/94 188/1/94
f 189/1/95 190/1/95 191/1/95
f 189/1/96 191/1/96 192/1/96
f 193/1/97 194/1/97 195/1/97
f 193/1/98 195/1/98 196/1/98
f 197/1/99 198/1/99 199/1/99
f 197/1/100 199/1/100 200/1/100
f 201/1/101 202/1/101 203/1/101
f 201/1/102 203/1/102 204/1/102
f 205/1/103 206/1/103 207/1/103
f 205/1/104 207/1/104 208/1/104
f 209/1/105 210/1/105 211/1/105
f 209/1/106 211/1/106 212/1/106
f 213/1/107 214/1/107 215/1/107
f 213/1/108 215/1/108 216/1/108
f 217/1/109 218/1/109 219/1/109
f 217/1/110 219/1/110 220/1/110
f 221/1/111 222/1/111 223/1/111
f 221/1/112 223/1/112 224/1/112
f 225/1/113 226/1/113 227/1/113
f 225/1/114 227/1/114 228/1/114
f 229/1/115 230/1/115 231/1/115
f 229/1/116 231/1/116 232/1/116
f 233/1/117 234/1/117 235/1/117
f 233/1/118 235/1/118 236/1/118
f 237/1/119 238/1/119 239/1/119
f 237/1/120 239/1/120 240/1/120
f 241/1/121 242/1/121 243/1/121
f 241/1/122 243/1/122 244/1/122
f 245/1/123 246/1/123 247/1/123
f 245/1/124 247/1/124 248/1/124
f 249/1/125 250/1/125 251/1/125
f 249/1/126 251/1/126 252/1/126
f 253/1/127 254/1/127 255/1/127
f 253/1/128 255/1/128 256/1/128
f 257/1/129 258/1/129 259/1/129
f 257/1/130 259/1/130 260/1/130
f 261/1/131 262/1/131 263/1/131
f 261/1/132 263/1/132 264/1/132
f 265/1/133 266/1/133 267/1/133
f 265/1/134 267/1/134 268/1/134
f 269/1/135 270/1/135 271/1/135
f 269/1/136 271/1/136 272/1/136
f 273/1/137 274/1/137 275/1/137
f 273/1/138 275/1/138 276/1/138
f 277/1/139 278/1/139 279/1/139
f 277/1/140 279/1/140 280/1/140
f 281/1/141 282/1/141 283/1/141
f 281/1/142 283/1/142 284/1/142
f 285/1/143 286/1/143 287/1/143
f 285/1/144 287/1/144 288/1/144
f 289/1/145 290/1/145 291/1/145
f 289/1/146 291/1/146 292/1/146
f 293/1/147 294/1/147 295/1/147
f 293/1/148 295/1/148 296/1/148
f 297/1/149 298/1/149 299/1/149
f 297/1/150 299/1/150 300/1/150
f 301/1/151 302/1/151 303/1/151
f 301/1/152 303/1/152 304/1/152
f 305/1/153 306/1/153 307/1/153
f 305/1/154 307/1/154 308/1/154
f 309/1/155 310/1/155 311/1/155
f 309/1/156 311/1/156 312/1/156
f 313/1/157 314/1/157 315/1/157
f 313/1/158 315/1/158 316/1/158
f 317/1/159 318/1/159 319/1/159
f 317/1/160 319/1/160 320/1/160
