o ran_tailhook
v 0.00033200 -0.00031700 -0.02801800
v 0.00023800 0.00000000 -0.02806700
v 0.00024000 -0.00005800 -0.02845700
v 0.00033600 -0.00033100 -0.02834700
v -0.00034000 -0.00031700 -0.02801800
v 0.00033200 -0.00031700 -0.02801800
v 0.00033600 -0.00033100 -0.02834700
v -0.00034300 -0.00033100 -0.02834700
v -0.00024800 -0.00005800 -0.02845700
v -0.00024600 0.00000000 -0.02806700
v -0.00034000 -0.00031700 -0.02801800
v -0.00034300 -0.00033100 -0.02834700
v 0.00023800 0.00000000 -0.02806700
v -0.00024600 0.00000000 -0.02806700
v -0.00024800 -0.00005800 -0.02845700
v 0.00024000 -0.00005800 -0.02845700
v -0.00046300 -0.00143900 -0.02855900
v 0.00045500 -0.00143900 -0.02855900
v 0.00032700 -0.00133900 -0.02868100
v -0.00033400 -0.00133900 -0.02868100
v 0.00032700 -0.00133900 -0.02868100
v 0.00045500 -0.00143900 -0.02855900
v 0.00038200 -0.00070100 -0.02864300
v 0.00027400 -0.00075700 -0.02882200
v 0.00045500 -0.00143900 -0.02855900
v -0.00046300 -0.00143900 -0.02855900
v -0.00039000 -0.00070100 -0.02864300
v 0.00038200 -0.00070100 -0.02864300
v -0.00046300 -0.00143900 -0.02855900
v -0.00033400 -0.00133900 -0.02868100
v -0.00028100 -0.00075700 -0.02882200
v -0.00039000 -0.00070100 -0.02864300
v -0.00033400 -0.00133900 -0.02868100
v 0.00032700 -0.00133900 -0.02868100
v 0.00027400 -0.00075700 -0.02882200
v -0.00028100 -0.00075700 -0.02882200
v 0.00035500 -0.00054300 -0.02860900
v 0.00026200 -0.00046900 -0.02884600
v -0.00036300 -0.00054300 -0.02860900
v 0.00035500 -0.00054300 -0.02860900
v -0.00027000 -0.00046900 -0.02884600
v -0.00036300 -0.00054300 -0.02860900
v 0.00026200 -0.00046900 -0.02884600
v -0.00027000 -0.00046900 -0.02884600
v 0.00034600 -0.00040500 -0.02853300
v 0.00024800 -0.00022400 -0.02869800
v -0.00035300 -0.00040500 -0.02853300
v 0.00034600 -0.00040500 -0.02853300
v -0.00025500 -0.00022400 -0.02869800
v -0.00035300 -0.00040500 -0.02853300
v 0.00024800 -0.00022400 -0.02869800
v -0.00025500 -0.00022400 -0.02869800
v 0.00032900 -0.00038800 -0.02766000
v 0.00023600 -0.00005900 -0.02761400
v -0.00033600 -0.00038800 -0.02766000
v 0.00032900 -0.00038800 -0.02766000
v -0.00024300 -0.00005900 -0.02761400
v -0.00033600 -0.00038800 -0.02766000
v 0.00023600 -0.00005900 -0.02761400
v -0.00024300 -0.00005900 -0.02761400
v 0.00032900 -0.00100100 -0.02559200
v 0.00023600 -0.00046900 -0.02553100
v -0.00033600 -0.00100100 -0.02559200
v 0.00032900 -0.00100100 -0.02559200
v -0.00024300 -0.00046900 -0.02553100
v -0.00033600 -0.00100100 -0.02559200
v 0.00023600 -0.00046900 -0.02553100
v -0.00024300 -0.00046900 -0.02553100
v 0.00032900 -0.00145000 -0.02450700
v 0.00023600 -0.00067100 -0.02438900
v -0.00033600 -0.00145000 -0.02450700
v 0.00032900 -0.00145000 -0.02450700
v -0.00024300 -0.00067100 -0.02438900
v -0.00033600 -0.00145000 -0.02450700
v 0.00023600 -0.00067100 -0.02438900
v -0.00024300 -0.00067100 -0.02438900
v -0.00000400 -0.00105600 -0.02444500
v 0.00037200 -0.00127000 -0.02447500
v 0.00043000 -0.00105600 -0.02444500
v 0.00021300 -0.00142700 -0.02449700
v -0.00000400 -0.00148500 -0.02450500
v -0.00022000 -0.00142700 -0.02449700
v -0.00037900 -0.00127000 -0.02447500
v -0.00043700 -0.00105600 -0.02444500
v -0.00037900 -0.00084100 -0.02441400
v -0.00022000 -0.00068400 -0.02439200
v -0.00000400 -0.00062600 -0.02438400
v 0.00021300 -0.00068400 -0.02439200
v 0.00037200 -0.00084100 -0.02441400
v 0.00037200 -0.00455800 -0.00155600
v 0.00043000 -0.00434300 -0.00152600
v 0.00043000 -0.00105600 -0.02444500
v 0.00037200 -0.00127000 -0.02447500
v 0.00021300 -0.00471500 -0.00157800
v 0.00021300 -0.00142700 -0.02449700
v -0.00000400 -0.00477200 -0.00158600
v -0.00000400 -0.00148500 -0.02450500
v -0.00022000 -0.00471500 -0.00157800
v -0.00022000 -0.00142700 -0.02449700
v -0.00037900 -0.00455800 -0.00155600
v -0.00037900 -0.00127000 -0.02447500
v -0.00043700 -0.00434300 -0.00152600
v -0.00043700 -0.00105600 -0.02444500
v -0.00037900 -0.00412800 -0.00149600
v -0.00037900 -0.00084100 -0.02441400
v -0.00022000 -0.00397100 -0.00147300
v -0.00022000 -0.00068400 -0.02439200
v -0.00000400 -0.00391400 -0.00146500
v -0.00000400 -0.00062600 -0.02438400
v 0.00021300 -0.00397100 -0.00147300
v 0.00021300 -0.00068400 -0.02439200
v 0.00037200 -0.00412800 -0.00149600
v 0.00037200 -0.00084100 -0.02441400
v -0.00000400 -0.00434300 -0.00152600
v 0.00043000 -0.00434300 -0.00152600
v 0.00037200 -0.00455800 -0.00155600
v 0.00021300 -0.00471500 -0.00157800
v -0.00000400 -0.00477200 -0.00158600
v -0.00022000 -0.00471500 -0.00157800
v -0.00037900 -0.00455800 -0.00155600
v -0.00043700 -0.00434300 -0.00152600
v -0.00037900 -0.00412800 -0.00149600
v -0.00022000 -0.00397100 -0.00147300
v -0.00000400 -0.00391400 -0.00146500
v 0.00021300 -0.00397100 -0.00147300
v 0.00037200 -0.00412800 -0.00149600
v -0.00046300 -0.00375200 -0.00148500
v -0.00046300 -0.00389700 0.00000000
v -0.00046300 -0.00515400 -0.00017700
v -0.00046300 -0.00488400 -0.00164400
v -0.00046300 -0.00389700 0.00000000
v 0.00045600 -0.00389700 0.00000000
v 0.00045600 -0.00515400 -0.00017700
v -0.00046300 -0.00515400 -0.00017700
v 0.00045600 -0.00389700 0.00000000
v 0.00045600 -0.00375200 -0.00148500
v 0.00045600 -0.00488400 -0.00164400
v 0.00045600 -0.00515400 -0.00017700
v 0.00045600 -0.00375200 -0.00148500
v -0.00046300 -0.00375200 -0.00148500
v -0.00046300 -0.00488400 -0.00164400
v 0.00045600 -0.00488400 -0.00164400
v 0.00045600 -0.00389700 0.00000000
v -0.00046300 -0.00389700 0.00000000
v -0.00046300 -0.00375200 -0.00148500
v 0.00045600 -0.00375200 -0.00148500
v 0.00045600 -0.00515400 -0.00017700
v 0.00045600 -0.00488400 -0.00164400
v -0.00046300 -0.00488400 -0.00164400
v -0.00046300 -0.00515400 -0.00017700
vt 0.324608 0.636559
vt 0.327106 0.638250
vt 0.325100 0.639213
vt 0.326325 0.636040
vt 0.326624 0.626294
vt 0.327336 0.626997
vt 0.327609 0.632511
vt 0.328507 0.631823
vt 0.327546 0.633914
vt 0.328843 0.634258
vt 0.327250 0.635186
vt 0.328244 0.636534
vt 0.322675 0.636384
vt 0.322675 0.639253
vt 0.313433 0.633549
vt 0.313433 0.637557
vt 0.307398 0.631004
vt 0.307398 0.636798
vt 0.307375 0.633420
vt 0.307375 0.631543
vt 0.307375 0.630171
vt 0.307375 0.629667
vt 0.307375 0.635296
vt 0.307375 0.636673
vt 0.307375 0.637172
vt 0.189629 0.631543
vt 0.189629 0.633420
vt 0.189629 0.630171
vt 0.189629 0.629667
vt 0.189629 0.635296
vt 0.189629 0.636673
vt 0.189629 0.637172
vt 0.189852 0.638540
vt 0.181947 0.628095
vt 0.181947 0.639084
vt 0.189852 0.628644
vn 0.9546 0.2967 0.0278
vn 0.9540 0.2862 -0.0891
vn 0.9598 0.2806 0.0047
vn 0.9423 0.3285 -0.0639
vn 0.0003 -0.9972 -0.0750
vn -0.0000 -0.9775 0.2111
vn 0.0007 -0.9972 -0.0749
vn 0.0006 -0.9775 0.2109
vn -0.9472 0.3099 -0.0821
vn -0.9546 0.2967 0.0278
vn -0.9601 0.2797 0.0049
vn -0.9479 0.3168 -0.0335
vn -0.0000 1.0000 -0.0095
vn -0.0000 0.9294 -0.3691
vn -0.0000 1.0000 -0.0091
vn -0.0000 0.9293 -0.3694
vn -0.0000 -0.7752 -0.6317
vn 0.7115 -0.0200 -0.7024
vn 0.8188 0.1273 -0.5597
vn 0.6813 -0.0156 -0.7318
vn 0.8785 0.0223 -0.4772
vn -0.0000 0.1131 0.9936
vn -0.0000 -0.0352 0.9994
vn -0.7072 -0.0821 -0.7022
vn -0.8424 -0.0013 -0.5389
vn -0.6280 -0.1285 -0.7676
vn -0.8825 0.0676 -0.4655
vn -0.0000 -0.2348 -0.9720
vn -0.0000 -0.1622 -0.9868
vn -0.0000 -0.2354 -0.9719
vn -0.0000 -0.1624 -0.9867
vn 0.9126 0.1677 -0.3729
vn 0.9356 0.1274 -0.3291
vn -0.0000 -0.3404 0.9403
vn -0.0000 -0.3406 0.9402
vn -0.9188 0.1664 -0.3579
vn -0.9282 0.2259 -0.2958
vn -0.0000 0.2190 -0.9757
vn 0.9266 0.3169 -0.2026
vn 0.9365 0.2782 -0.2133
vn -0.0000 -0.7420 0.6704
vn -0.0000 -0.7417 0.6708
vn -0.9283 0.2815 -0.2428
vn -0.9375 0.2733 -0.2154
vn -0.0000 0.6819 -0.7315
vn 0.9607 0.2699 0.0651
vn 0.9646 0.2580 0.0553
vn 0.0001 -0.9711 -0.2387
vn -0.0000 -0.9711 -0.2386
vn -0.9631 0.2642 0.0514
vn -0.9625 0.2672 0.0463
vn -0.0000 0.9869 0.1612
vn -0.0000 0.9868 0.1618
vn 0.9837 0.1709 0.0552
vn 0.9866 0.1580 0.0412
vn -0.0000 -0.9427 -0.3337
vn -0.9842 0.1727 0.0402
vn -0.9868 0.1565 0.0417
vn -0.0000 0.9830 0.1837
vn 0.9910 0.1297 0.0340
vn 0.9931 0.1155 0.0204
vn -0.0000 -0.9240 -0.3824
vn -0.0000 -0.9239 -0.3827
vn -0.9909 0.1280 0.0417
vn -0.9926 0.1121 0.0464
vn -0.0000 0.9847 0.1742
vn -0.0000 0.1394 -0.9902
vn -0.0000 0.1393 -0.9902
vn 0.0003 0.1393 -0.9903
vn 0.0002 0.1393 -0.9902
vn -0.0000 0.1392 -0.9903
vn 0.0003 0.1386 -0.9903
vn -0.0003 0.1393 -0.9902
vn -0.0001 0.1393 -0.9903
vn -0.0003 0.1391 -0.9903
vn -0.0000 0.1390 -0.9903
vn 0.0002 0.1391 -0.9903
vn 0.0001 0.1393 -0.9902
vn 0.8656 -0.4957 -0.0711
vn 1.0000 0.0005 0.0001
vn 1.0000 -0.0006 -0.0001
vn 0.8661 -0.4948 -0.0710
vn 0.4995 -0.8575 -0.1230
vn 0.5004 -0.8570 -0.1229
vn -0.0006 -0.9899 -0.1420
vn -0.4995 -0.8575 -0.1230
vn -0.5009 -0.8567 -0.1229
vn -0.8656 -0.4957 -0.0711
vn -0.8662 -0.4946 -0.0710
vn -1.0000 -0.0006 -0.0001
vn -1.0000 0.0005 0.0001
vn -0.8660 0.4950 0.0710
vn -0.8658 0.4953 0.0710
vn -0.4999 0.8573 0.1229
vn -0.4997 0.8574 0.1230
vn -0.0006 0.9899 0.1420
vn -0.0001 0.9899 0.1420
vn 0.5000 0.8572 0.1230
vn 0.4998 0.8573 0.1230
vn 0.8660 0.4950 0.0710
vn 0.8658 0.4953 0.0710
vn -0.0000 -0.1395 0.9902
vn -0.0000 -0.1388 0.9903
vn -0.0000 -0.1382 0.9904
vn 0.0002 -0.1391 0.9903
vn -0.0000 -0.1392 0.9903
vn -0.0003 -0.1392 0.9903
vn -0.0000 -0.1394 0.9902
vn -0.0000 -0.1391 0.9903
vn -0.0001 -0.1390 0.9903
vn -0.0001 -0.1392 0.9903
vn -0.0000 -0.1390 0.9903
vn 0.0001 -0.1392 0.9903
vn 0.0001 -0.1390 0.9903
vn -1.0000 -0.0000 -0.0000
vn 1.0000 -0.0000 -0.0000
vn -0.0000 0.1391 -0.9903
vn -0.0000 0.9953 0.0972
vn -0.0000 -0.9835 -0.1810
f 1/1/1 3/2/2 2/3/3
f 3/2/2 1/1/1 4/4/4
f 5/1/5 7/4/6 6/1/7
f 7/4/6 5/1/5 8/4/8
f 9/2/9 11/1/10 10/3/11
f 11/1/10 9/2/9 12/4/12
f 13/3/13 15/2/14 14/3/15
f 15/2/14 13/3/13 16/2/16
f 17/5/17 19/6/17 18/5/17
f 19/6/17 17/5/17 20/6/17
f 21/6/18 23/7/19 22/5/20
f 23/7/19 21/6/18 24/8/21
f 25/5/22 27/7/23 26/5/22
f 27/7/23 25/5/22 28/7/23
f 29/5/24 31/8/25 30/6/26
f 31/8/25 29/5/24 32/7/27
f 33/6/28 35/8/29 34/6/30
f 35/8/29 33/6/28 36/8/31
f 24/8/21 37/9/32 23/7/19
f 37/9/32 24/8/21 38/10/33
f 28/7/23 39/9/34 27/7/23
f 39/9/34 28/7/23 40/9/35
f 32/7/27 41/10/36 31/8/25
f 41/10/36 32/7/27 42/9/37
f 36/8/31 43/10/38 35/8/29
f 43/10/38 36/8/31 44/10/38
f 38/10/33 45/11/39 37/9/32
f 45/11/39 38/10/33 46/12/40
f 40/9/35 47/11/41 39/9/34
f 47/11/41 40/9/35 48/11/42
f 42/9/37 49/12/43 41/10/36
f 49/12/43 42/9/37 50/11/44
f 44/10/38 51/12/45 43/10/38
f 51/12/45 44/10/38 52/12/45
f 46/12/40 4/4/4 45/11/39
f 4/4/4 46/12/40 3/2/2
f 48/11/42 8/4/8 47/11/41
f 8/4/8 48/11/42 7/4/6
f 50/11/44 9/2/9 49/12/43
f 9/2/9 50/11/44 12/4/12
f 52/12/45 16/2/16 51/12/45
f 16/2/16 52/12/45 15/2/14
f 2/3/3 53/13/46 1/1/1
f 53/13/46 2/3/3 54/14/47
f 5/1/5 56/13/48 55/13/49
f 56/13/48 5/1/5 6/1/7
f 10/3/11 58/13/50 57/14/51
f 58/13/50 10/3/11 11/1/10
f 13/3/13 60/14/52 59/14/53
f 60/14/52 13/3/13 14/3/15
f 54/14/47 61/15/54 53/13/46
f 61/15/54 54/14/47 62/16/55
f 56/13/48 63/15/56 55/13/49
f 63/15/56 56/13/48 64/15/56
f 58/13/50 65/16/57 57/14/51
f 65/16/57 58/13/50 66/15/58
f 60/14/52 67/16/59 59/14/53
f 67/16/59 60/14/52 68/16/59
f 62/16/55 69/17/60 61/15/54
f 69/17/60 62/16/55 70/18/61
f 64/15/56 71/17/62 63/15/56
f 71/17/62 64/15/56 72/17/63
f 66/15/58 73/18/64 65/16/57
f 73/18/64 66/15/58 74/17/65
f 68/16/59 75/18/66 67/16/59
f 75/18/66 68/16/59 76/18/66
f 77/19/67 79/19/68 78/20/69
f 77/19/67 78/20/69 80/21/70
f 77/19/67 80/21/70 81/22/71
f 77/19/67 81/22/71 82/21/72
f 77/19/67 82/21/72 83/20/73
f 77/19/67 83/20/73 84/19/68
f 77/19/67 84/19/68 85/23/74
f 77/19/67 85/23/74 86/24/75
f 77/19/67 86/24/75 87/25/76
f 77/19/67 87/25/76 88/24/77
f 77/19/67 88/24/77 89/23/78
f 77/19/67 89/23/78 79/19/68
f 90/26/79 92/19/80 91/27/81
f 90/26/79 93/20/82 92/19/80
f 94/28/83 93/20/82 90/26/79
f 94/28/83 95/21/84 93/20/82
f 96/29/85 95/21/84 94/28/83
f 96/29/85 97/22/85 95/21/84
f 98/28/86 97/22/85 96/29/85
f 98/28/86 99/21/87 97/22/85
f 100/26/88 99/21/87 98/28/86
f 100/26/88 101/20/89 99/21/87
f 102/27/90 101/20/89 100/26/88
f 102/27/90 103/19/91 101/20/89
f 104/30/92 103/19/91 102/27/90
f 104/30/92 105/23/93 103/19/91
f 106/31/94 105/23/93 104/30/92
f 106/31/94 107/24/95 105/23/93
f 108/32/96 107/24/95 106/31/94
f 108/32/96 109/25/97 107/24/95
f 110/31/98 109/25/97 108/32/96
f 110/31/98 111/24/99 109/25/97
f 112/30/100 111/24/99 110/31/98
f 112/30/100 113/23/101 111/24/99
f 91/27/81 113/23/101 112/30/100
f 91/27/81 92/19/80 113/23/101
f 114/27/102 116/26/103 115/27/104
f 114/27/102 117/28/105 116/26/103
f 114/27/102 118/29/106 117/28/105
f 114/27/102 119/28/107 118/29/106
f 114/27/102 120/26/108 119/28/107
f 114/27/102 121/27/109 120/26/108
f 114/27/102 122/30/110 121/27/109
f 114/27/102 123/31/111 122/30/110
f 114/27/102 124/32/112 123/31/111
f 114/27/102 125/31/113 124/32/112
f 114/27/102 126/30/114 125/31/113
f 114/27/102 115/27/104 126/30/114
f 127/33/115 129/34/115 128/35/115
f 129/34/115 127/33/115 130/36/115
f 131/35/108 133/34/108 132/35/108
f 133/34/108 131/35/108 134/34/108
f 135/35/116 137/36/116 136/33/116
f 137/36/116 135/35/116 138/34/116
f 139/33/117 141/36/117 140/33/117
f 141/36/117 139/33/117 142/36/117
f 143/35/118 145/33/118 144/35/118
f 145/33/118 143/35/118 146/33/118
f 147/34/119 149/36/119 148/36/119
f 149/36/119 147/34/119 150/34/119
